<mxfile host="app.diagrams.net" modified="2023-10-31T15:32:30.608Z" agent="Mozilla/5.0 (Windows NT 10.0; Win64; x64) AppleWebKit/537.36 (KHTML, like Gecko) Chrome/118.0.0.0 Safari/537.36" etag="q_mbeYGTFAc0CodIM5yr" version="22.0.8" type="device">
  <diagram name="Страница — 1" id="toN4e3wIf5AQ61mbphhF">
    <mxGraphModel dx="1500" dy="820" grid="1" gridSize="10" guides="1" tooltips="1" connect="1" arrows="1" fold="1" page="1" pageScale="1" pageWidth="827" pageHeight="1169" math="0" shadow="0">
      <root>
        <mxCell id="0" />
        <mxCell id="1" parent="0" />
        <mxCell id="qr8d7CnqY7PZ72oE8k62-1" value="Beginning" style="ellipse;whiteSpace=wrap;html=1;" vertex="1" parent="1">
          <mxGeometry x="330" y="50" width="120" height="40" as="geometry" />
        </mxCell>
        <mxCell id="qr8d7CnqY7PZ72oE8k62-2" value="Input h1, h2, h3, h4, d1, d2, d3, d4" style="shape=parallelogram;perimeter=parallelogramPerimeter;whiteSpace=wrap;html=1;fixedSize=1;" vertex="1" parent="1">
          <mxGeometry x="330" y="120" width="120" height="60" as="geometry" />
        </mxCell>
        <mxCell id="qr8d7CnqY7PZ72oE8k62-3" value="if(d1&amp;gt;h1 or d2&amp;gt;h2 or d3&amp;gt;h3 or d4&amp;gt;h4)" style="rhombus;whiteSpace=wrap;html=1;" vertex="1" parent="1">
          <mxGeometry x="350" y="200" width="80" height="80" as="geometry" />
        </mxCell>
        <mxCell id="qr8d7CnqY7PZ72oE8k62-4" value="answer=ERROR" style="rounded=0;whiteSpace=wrap;html=1;" vertex="1" parent="1">
          <mxGeometry x="480" y="210" width="120" height="60" as="geometry" />
        </mxCell>
        <mxCell id="qr8d7CnqY7PZ72oE8k62-5" value="h1=h1-d1&lt;br&gt;hmax=max(h1, h2, h3, h4)" style="rounded=0;whiteSpace=wrap;html=1;" vertex="1" parent="1">
          <mxGeometry x="330" y="300" width="120" height="60" as="geometry" />
        </mxCell>
        <mxCell id="qr8d7CnqY7PZ72oE8k62-6" value="if(hmax&amp;gt;=2*h1 and answer!=ERROR)" style="rhombus;whiteSpace=wrap;html=1;" vertex="1" parent="1">
          <mxGeometry x="350" y="380" width="80" height="80" as="geometry" />
        </mxCell>
        <mxCell id="qr8d7CnqY7PZ72oE8k62-7" value="answer=NO" style="rounded=0;whiteSpace=wrap;html=1;" vertex="1" parent="1">
          <mxGeometry x="480" y="390" width="120" height="60" as="geometry" />
        </mxCell>
        <mxCell id="qr8d7CnqY7PZ72oE8k62-8" value="" style="endArrow=classic;html=1;rounded=0;exitX=0.5;exitY=1;exitDx=0;exitDy=0;entryX=0.5;entryY=0;entryDx=0;entryDy=0;" edge="1" parent="1" source="qr8d7CnqY7PZ72oE8k62-1" target="qr8d7CnqY7PZ72oE8k62-2">
          <mxGeometry width="50" height="50" relative="1" as="geometry">
            <mxPoint x="390" y="320" as="sourcePoint" />
            <mxPoint x="440" y="270" as="targetPoint" />
          </mxGeometry>
        </mxCell>
        <mxCell id="qr8d7CnqY7PZ72oE8k62-9" value="" style="endArrow=classic;html=1;rounded=0;exitX=0.5;exitY=1;exitDx=0;exitDy=0;entryX=0.5;entryY=0;entryDx=0;entryDy=0;" edge="1" parent="1" source="qr8d7CnqY7PZ72oE8k62-2" target="qr8d7CnqY7PZ72oE8k62-3">
          <mxGeometry width="50" height="50" relative="1" as="geometry">
            <mxPoint x="310" y="260" as="sourcePoint" />
            <mxPoint x="360" y="210" as="targetPoint" />
          </mxGeometry>
        </mxCell>
        <mxCell id="qr8d7CnqY7PZ72oE8k62-10" value="" style="endArrow=classic;html=1;rounded=0;exitX=1;exitY=0.5;exitDx=0;exitDy=0;entryX=0;entryY=0.5;entryDx=0;entryDy=0;" edge="1" parent="1" source="qr8d7CnqY7PZ72oE8k62-3" target="qr8d7CnqY7PZ72oE8k62-4">
          <mxGeometry width="50" height="50" relative="1" as="geometry">
            <mxPoint x="390" y="320" as="sourcePoint" />
            <mxPoint x="440" y="270" as="targetPoint" />
          </mxGeometry>
        </mxCell>
        <mxCell id="qr8d7CnqY7PZ72oE8k62-12" value="" style="endArrow=none;html=1;rounded=0;exitX=0;exitY=0.5;exitDx=0;exitDy=0;" edge="1" parent="1" source="qr8d7CnqY7PZ72oE8k62-3">
          <mxGeometry width="50" height="50" relative="1" as="geometry">
            <mxPoint x="390" y="320" as="sourcePoint" />
            <mxPoint x="290" y="240" as="targetPoint" />
          </mxGeometry>
        </mxCell>
        <mxCell id="qr8d7CnqY7PZ72oE8k62-13" value="" style="endArrow=none;html=1;rounded=0;" edge="1" parent="1">
          <mxGeometry width="50" height="50" relative="1" as="geometry">
            <mxPoint x="290" y="240" as="sourcePoint" />
            <mxPoint x="290" y="330" as="targetPoint" />
          </mxGeometry>
        </mxCell>
        <mxCell id="qr8d7CnqY7PZ72oE8k62-14" value="" style="endArrow=none;html=1;rounded=0;entryX=0.5;entryY=1;entryDx=0;entryDy=0;" edge="1" parent="1" target="qr8d7CnqY7PZ72oE8k62-4">
          <mxGeometry width="50" height="50" relative="1" as="geometry">
            <mxPoint x="540" y="330" as="sourcePoint" />
            <mxPoint x="440" y="270" as="targetPoint" />
          </mxGeometry>
        </mxCell>
        <mxCell id="qr8d7CnqY7PZ72oE8k62-15" value="" style="endArrow=classic;html=1;rounded=0;entryX=1;entryY=0.5;entryDx=0;entryDy=0;" edge="1" parent="1" target="qr8d7CnqY7PZ72oE8k62-5">
          <mxGeometry width="50" height="50" relative="1" as="geometry">
            <mxPoint x="540" y="330" as="sourcePoint" />
            <mxPoint x="440" y="270" as="targetPoint" />
          </mxGeometry>
        </mxCell>
        <mxCell id="qr8d7CnqY7PZ72oE8k62-16" value="" style="endArrow=classic;html=1;rounded=0;entryX=0;entryY=0.5;entryDx=0;entryDy=0;" edge="1" parent="1" target="qr8d7CnqY7PZ72oE8k62-5">
          <mxGeometry width="50" height="50" relative="1" as="geometry">
            <mxPoint x="290" y="330" as="sourcePoint" />
            <mxPoint x="440" y="270" as="targetPoint" />
          </mxGeometry>
        </mxCell>
        <mxCell id="qr8d7CnqY7PZ72oE8k62-17" value="" style="endArrow=classic;html=1;rounded=0;exitX=0.5;exitY=1;exitDx=0;exitDy=0;entryX=0.5;entryY=0;entryDx=0;entryDy=0;" edge="1" parent="1" source="qr8d7CnqY7PZ72oE8k62-5" target="qr8d7CnqY7PZ72oE8k62-6">
          <mxGeometry width="50" height="50" relative="1" as="geometry">
            <mxPoint x="390" y="320" as="sourcePoint" />
            <mxPoint x="440" y="270" as="targetPoint" />
          </mxGeometry>
        </mxCell>
        <mxCell id="qr8d7CnqY7PZ72oE8k62-18" value="h2=h2-d2&lt;br&gt;hmax=max(h1, h2, h3, h4)" style="rounded=0;whiteSpace=wrap;html=1;" vertex="1" parent="1">
          <mxGeometry x="328" y="480" width="120" height="60" as="geometry" />
        </mxCell>
        <mxCell id="qr8d7CnqY7PZ72oE8k62-19" value="" style="endArrow=classic;html=1;rounded=0;exitX=1;exitY=0.5;exitDx=0;exitDy=0;entryX=0;entryY=0.5;entryDx=0;entryDy=0;" edge="1" parent="1">
          <mxGeometry width="50" height="50" relative="1" as="geometry">
            <mxPoint x="428" y="420" as="sourcePoint" />
            <mxPoint x="478" y="420" as="targetPoint" />
          </mxGeometry>
        </mxCell>
        <mxCell id="qr8d7CnqY7PZ72oE8k62-20" value="" style="endArrow=none;html=1;rounded=0;exitX=0;exitY=0.5;exitDx=0;exitDy=0;" edge="1" parent="1">
          <mxGeometry width="50" height="50" relative="1" as="geometry">
            <mxPoint x="348" y="420" as="sourcePoint" />
            <mxPoint x="288" y="420" as="targetPoint" />
          </mxGeometry>
        </mxCell>
        <mxCell id="qr8d7CnqY7PZ72oE8k62-21" value="" style="endArrow=none;html=1;rounded=0;" edge="1" parent="1">
          <mxGeometry width="50" height="50" relative="1" as="geometry">
            <mxPoint x="288" y="420" as="sourcePoint" />
            <mxPoint x="288" y="510" as="targetPoint" />
          </mxGeometry>
        </mxCell>
        <mxCell id="qr8d7CnqY7PZ72oE8k62-22" value="" style="endArrow=none;html=1;rounded=0;entryX=0.5;entryY=1;entryDx=0;entryDy=0;" edge="1" parent="1">
          <mxGeometry width="50" height="50" relative="1" as="geometry">
            <mxPoint x="538" y="510" as="sourcePoint" />
            <mxPoint x="538" y="450" as="targetPoint" />
          </mxGeometry>
        </mxCell>
        <mxCell id="qr8d7CnqY7PZ72oE8k62-23" value="" style="endArrow=classic;html=1;rounded=0;entryX=1;entryY=0.5;entryDx=0;entryDy=0;" edge="1" parent="1" target="qr8d7CnqY7PZ72oE8k62-18">
          <mxGeometry width="50" height="50" relative="1" as="geometry">
            <mxPoint x="538" y="510" as="sourcePoint" />
            <mxPoint x="438" y="450" as="targetPoint" />
          </mxGeometry>
        </mxCell>
        <mxCell id="qr8d7CnqY7PZ72oE8k62-24" value="" style="endArrow=classic;html=1;rounded=0;entryX=0;entryY=0.5;entryDx=0;entryDy=0;" edge="1" parent="1" target="qr8d7CnqY7PZ72oE8k62-18">
          <mxGeometry width="50" height="50" relative="1" as="geometry">
            <mxPoint x="288" y="510" as="sourcePoint" />
            <mxPoint x="438" y="450" as="targetPoint" />
          </mxGeometry>
        </mxCell>
        <mxCell id="qr8d7CnqY7PZ72oE8k62-25" value="" style="endArrow=classic;html=1;rounded=0;exitX=0.5;exitY=1;exitDx=0;exitDy=0;entryX=0.5;entryY=0;entryDx=0;entryDy=0;" edge="1" parent="1" source="qr8d7CnqY7PZ72oE8k62-18">
          <mxGeometry width="50" height="50" relative="1" as="geometry">
            <mxPoint x="388" y="500" as="sourcePoint" />
            <mxPoint x="388" y="560" as="targetPoint" />
          </mxGeometry>
        </mxCell>
        <mxCell id="qr8d7CnqY7PZ72oE8k62-26" value="True" style="text;html=1;strokeColor=none;fillColor=none;align=center;verticalAlign=middle;whiteSpace=wrap;rounded=0;" vertex="1" parent="1">
          <mxGeometry x="420" y="210" width="60" height="30" as="geometry" />
        </mxCell>
        <mxCell id="qr8d7CnqY7PZ72oE8k62-27" value="False" style="text;html=1;strokeColor=none;fillColor=none;align=center;verticalAlign=middle;whiteSpace=wrap;rounded=0;" vertex="1" parent="1">
          <mxGeometry x="290" y="210" width="60" height="30" as="geometry" />
        </mxCell>
        <mxCell id="qr8d7CnqY7PZ72oE8k62-28" value="False" style="text;html=1;strokeColor=none;fillColor=none;align=center;verticalAlign=middle;whiteSpace=wrap;rounded=0;" vertex="1" parent="1">
          <mxGeometry x="290" y="390" width="60" height="30" as="geometry" />
        </mxCell>
        <mxCell id="qr8d7CnqY7PZ72oE8k62-29" value="True" style="text;html=1;strokeColor=none;fillColor=none;align=center;verticalAlign=middle;whiteSpace=wrap;rounded=0;" vertex="1" parent="1">
          <mxGeometry x="420" y="390" width="60" height="30" as="geometry" />
        </mxCell>
        <mxCell id="qr8d7CnqY7PZ72oE8k62-30" value="if(hmax&amp;gt;=2*h2 and answer!=ERROR)" style="rhombus;whiteSpace=wrap;html=1;" vertex="1" parent="1">
          <mxGeometry x="350" y="560" width="80" height="80" as="geometry" />
        </mxCell>
        <mxCell id="qr8d7CnqY7PZ72oE8k62-31" value="answer=NO" style="rounded=0;whiteSpace=wrap;html=1;" vertex="1" parent="1">
          <mxGeometry x="480" y="570" width="120" height="60" as="geometry" />
        </mxCell>
        <mxCell id="qr8d7CnqY7PZ72oE8k62-32" value="h3=h3-d3&lt;br&gt;hmax=max(h1, h2, h3, h4)" style="rounded=0;whiteSpace=wrap;html=1;" vertex="1" parent="1">
          <mxGeometry x="328" y="660" width="120" height="60" as="geometry" />
        </mxCell>
        <mxCell id="qr8d7CnqY7PZ72oE8k62-33" value="" style="endArrow=classic;html=1;rounded=0;exitX=1;exitY=0.5;exitDx=0;exitDy=0;entryX=0;entryY=0.5;entryDx=0;entryDy=0;" edge="1" parent="1">
          <mxGeometry width="50" height="50" relative="1" as="geometry">
            <mxPoint x="428" y="600" as="sourcePoint" />
            <mxPoint x="478" y="600" as="targetPoint" />
          </mxGeometry>
        </mxCell>
        <mxCell id="qr8d7CnqY7PZ72oE8k62-34" value="" style="endArrow=none;html=1;rounded=0;exitX=0;exitY=0.5;exitDx=0;exitDy=0;" edge="1" parent="1">
          <mxGeometry width="50" height="50" relative="1" as="geometry">
            <mxPoint x="348" y="600" as="sourcePoint" />
            <mxPoint x="288" y="600" as="targetPoint" />
          </mxGeometry>
        </mxCell>
        <mxCell id="qr8d7CnqY7PZ72oE8k62-35" value="" style="endArrow=none;html=1;rounded=0;" edge="1" parent="1">
          <mxGeometry width="50" height="50" relative="1" as="geometry">
            <mxPoint x="288" y="600" as="sourcePoint" />
            <mxPoint x="288" y="690" as="targetPoint" />
          </mxGeometry>
        </mxCell>
        <mxCell id="qr8d7CnqY7PZ72oE8k62-36" value="" style="endArrow=none;html=1;rounded=0;entryX=0.5;entryY=1;entryDx=0;entryDy=0;" edge="1" parent="1">
          <mxGeometry width="50" height="50" relative="1" as="geometry">
            <mxPoint x="538" y="690" as="sourcePoint" />
            <mxPoint x="538" y="630" as="targetPoint" />
          </mxGeometry>
        </mxCell>
        <mxCell id="qr8d7CnqY7PZ72oE8k62-37" value="" style="endArrow=classic;html=1;rounded=0;entryX=1;entryY=0.5;entryDx=0;entryDy=0;" edge="1" parent="1" target="qr8d7CnqY7PZ72oE8k62-32">
          <mxGeometry width="50" height="50" relative="1" as="geometry">
            <mxPoint x="538" y="690" as="sourcePoint" />
            <mxPoint x="438" y="630" as="targetPoint" />
          </mxGeometry>
        </mxCell>
        <mxCell id="qr8d7CnqY7PZ72oE8k62-38" value="" style="endArrow=classic;html=1;rounded=0;entryX=0;entryY=0.5;entryDx=0;entryDy=0;" edge="1" parent="1" target="qr8d7CnqY7PZ72oE8k62-32">
          <mxGeometry width="50" height="50" relative="1" as="geometry">
            <mxPoint x="288" y="690" as="sourcePoint" />
            <mxPoint x="438" y="630" as="targetPoint" />
          </mxGeometry>
        </mxCell>
        <mxCell id="qr8d7CnqY7PZ72oE8k62-39" value="" style="endArrow=classic;html=1;rounded=0;exitX=0.5;exitY=1;exitDx=0;exitDy=0;entryX=0.5;entryY=0;entryDx=0;entryDy=0;" edge="1" parent="1" source="qr8d7CnqY7PZ72oE8k62-32">
          <mxGeometry width="50" height="50" relative="1" as="geometry">
            <mxPoint x="388" y="680" as="sourcePoint" />
            <mxPoint x="388" y="740" as="targetPoint" />
          </mxGeometry>
        </mxCell>
        <mxCell id="qr8d7CnqY7PZ72oE8k62-40" value="False" style="text;html=1;strokeColor=none;fillColor=none;align=center;verticalAlign=middle;whiteSpace=wrap;rounded=0;" vertex="1" parent="1">
          <mxGeometry x="290" y="570" width="60" height="30" as="geometry" />
        </mxCell>
        <mxCell id="qr8d7CnqY7PZ72oE8k62-41" value="True" style="text;html=1;strokeColor=none;fillColor=none;align=center;verticalAlign=middle;whiteSpace=wrap;rounded=0;" vertex="1" parent="1">
          <mxGeometry x="420" y="570" width="60" height="30" as="geometry" />
        </mxCell>
        <mxCell id="qr8d7CnqY7PZ72oE8k62-42" value="if(hmax&amp;gt;=2*h3 and answer!=ERROR)" style="rhombus;whiteSpace=wrap;html=1;" vertex="1" parent="1">
          <mxGeometry x="350" y="740" width="80" height="80" as="geometry" />
        </mxCell>
        <mxCell id="qr8d7CnqY7PZ72oE8k62-43" value="answer=NO" style="rounded=0;whiteSpace=wrap;html=1;" vertex="1" parent="1">
          <mxGeometry x="480" y="750" width="120" height="60" as="geometry" />
        </mxCell>
        <mxCell id="qr8d7CnqY7PZ72oE8k62-44" value="h4=h4-d4&lt;br&gt;hmax=max(h1, h2, h3, h4)" style="rounded=0;whiteSpace=wrap;html=1;" vertex="1" parent="1">
          <mxGeometry x="328" y="840" width="120" height="60" as="geometry" />
        </mxCell>
        <mxCell id="qr8d7CnqY7PZ72oE8k62-45" value="" style="endArrow=classic;html=1;rounded=0;exitX=1;exitY=0.5;exitDx=0;exitDy=0;entryX=0;entryY=0.5;entryDx=0;entryDy=0;" edge="1" parent="1">
          <mxGeometry width="50" height="50" relative="1" as="geometry">
            <mxPoint x="428" y="780" as="sourcePoint" />
            <mxPoint x="478" y="780" as="targetPoint" />
          </mxGeometry>
        </mxCell>
        <mxCell id="qr8d7CnqY7PZ72oE8k62-46" value="" style="endArrow=none;html=1;rounded=0;exitX=0;exitY=0.5;exitDx=0;exitDy=0;" edge="1" parent="1">
          <mxGeometry width="50" height="50" relative="1" as="geometry">
            <mxPoint x="348" y="780" as="sourcePoint" />
            <mxPoint x="288" y="780" as="targetPoint" />
          </mxGeometry>
        </mxCell>
        <mxCell id="qr8d7CnqY7PZ72oE8k62-47" value="" style="endArrow=none;html=1;rounded=0;" edge="1" parent="1">
          <mxGeometry width="50" height="50" relative="1" as="geometry">
            <mxPoint x="288" y="780" as="sourcePoint" />
            <mxPoint x="288" y="870" as="targetPoint" />
          </mxGeometry>
        </mxCell>
        <mxCell id="qr8d7CnqY7PZ72oE8k62-48" value="" style="endArrow=none;html=1;rounded=0;entryX=0.5;entryY=1;entryDx=0;entryDy=0;" edge="1" parent="1">
          <mxGeometry width="50" height="50" relative="1" as="geometry">
            <mxPoint x="538" y="870" as="sourcePoint" />
            <mxPoint x="538" y="810" as="targetPoint" />
          </mxGeometry>
        </mxCell>
        <mxCell id="qr8d7CnqY7PZ72oE8k62-49" value="" style="endArrow=classic;html=1;rounded=0;entryX=1;entryY=0.5;entryDx=0;entryDy=0;" edge="1" parent="1" target="qr8d7CnqY7PZ72oE8k62-44">
          <mxGeometry width="50" height="50" relative="1" as="geometry">
            <mxPoint x="538" y="870" as="sourcePoint" />
            <mxPoint x="438" y="810" as="targetPoint" />
          </mxGeometry>
        </mxCell>
        <mxCell id="qr8d7CnqY7PZ72oE8k62-50" value="" style="endArrow=classic;html=1;rounded=0;entryX=0;entryY=0.5;entryDx=0;entryDy=0;" edge="1" parent="1" target="qr8d7CnqY7PZ72oE8k62-44">
          <mxGeometry width="50" height="50" relative="1" as="geometry">
            <mxPoint x="288" y="870" as="sourcePoint" />
            <mxPoint x="438" y="810" as="targetPoint" />
          </mxGeometry>
        </mxCell>
        <mxCell id="qr8d7CnqY7PZ72oE8k62-51" value="" style="endArrow=classic;html=1;rounded=0;exitX=0.5;exitY=1;exitDx=0;exitDy=0;entryX=0.5;entryY=0;entryDx=0;entryDy=0;" edge="1" parent="1" source="qr8d7CnqY7PZ72oE8k62-44">
          <mxGeometry width="50" height="50" relative="1" as="geometry">
            <mxPoint x="388" y="860" as="sourcePoint" />
            <mxPoint x="388" y="920" as="targetPoint" />
          </mxGeometry>
        </mxCell>
        <mxCell id="qr8d7CnqY7PZ72oE8k62-52" value="False" style="text;html=1;strokeColor=none;fillColor=none;align=center;verticalAlign=middle;whiteSpace=wrap;rounded=0;" vertex="1" parent="1">
          <mxGeometry x="290" y="750" width="60" height="30" as="geometry" />
        </mxCell>
        <mxCell id="qr8d7CnqY7PZ72oE8k62-53" value="True" style="text;html=1;strokeColor=none;fillColor=none;align=center;verticalAlign=middle;whiteSpace=wrap;rounded=0;" vertex="1" parent="1">
          <mxGeometry x="420" y="750" width="60" height="30" as="geometry" />
        </mxCell>
        <mxCell id="qr8d7CnqY7PZ72oE8k62-54" value="if(hmax&amp;gt;=2*h4 and answer!=ERROR)" style="rhombus;whiteSpace=wrap;html=1;" vertex="1" parent="1">
          <mxGeometry x="350" y="920" width="80" height="80" as="geometry" />
        </mxCell>
        <mxCell id="qr8d7CnqY7PZ72oE8k62-55" value="answer=NO" style="rounded=0;whiteSpace=wrap;html=1;" vertex="1" parent="1">
          <mxGeometry x="480" y="930" width="120" height="60" as="geometry" />
        </mxCell>
        <mxCell id="qr8d7CnqY7PZ72oE8k62-57" value="" style="endArrow=classic;html=1;rounded=0;exitX=1;exitY=0.5;exitDx=0;exitDy=0;entryX=0;entryY=0.5;entryDx=0;entryDy=0;" edge="1" parent="1">
          <mxGeometry width="50" height="50" relative="1" as="geometry">
            <mxPoint x="428" y="960" as="sourcePoint" />
            <mxPoint x="478" y="960" as="targetPoint" />
          </mxGeometry>
        </mxCell>
        <mxCell id="qr8d7CnqY7PZ72oE8k62-60" value="" style="endArrow=none;html=1;rounded=0;entryX=0.5;entryY=1;entryDx=0;entryDy=0;" edge="1" parent="1">
          <mxGeometry width="50" height="50" relative="1" as="geometry">
            <mxPoint x="538" y="1060" as="sourcePoint" />
            <mxPoint x="538" y="990" as="targetPoint" />
          </mxGeometry>
        </mxCell>
        <mxCell id="qr8d7CnqY7PZ72oE8k62-61" value="" style="endArrow=classic;html=1;rounded=0;entryX=1;entryY=0.5;entryDx=0;entryDy=0;" edge="1" parent="1" target="qr8d7CnqY7PZ72oE8k62-66">
          <mxGeometry width="50" height="50" relative="1" as="geometry">
            <mxPoint x="540" y="1060" as="sourcePoint" />
            <mxPoint x="448" y="1050" as="targetPoint" />
          </mxGeometry>
        </mxCell>
        <mxCell id="qr8d7CnqY7PZ72oE8k62-62" value="" style="endArrow=classic;html=1;rounded=0;entryX=0.5;entryY=0;entryDx=0;entryDy=0;exitX=0.5;exitY=1;exitDx=0;exitDy=0;" edge="1" parent="1" target="qr8d7CnqY7PZ72oE8k62-66" source="qr8d7CnqY7PZ72oE8k62-54">
          <mxGeometry width="50" height="50" relative="1" as="geometry">
            <mxPoint x="288" y="1050" as="sourcePoint" />
            <mxPoint x="328" y="1050" as="targetPoint" />
          </mxGeometry>
        </mxCell>
        <mxCell id="qr8d7CnqY7PZ72oE8k62-63" value="" style="endArrow=classic;html=1;rounded=0;exitX=0.5;exitY=1;exitDx=0;exitDy=0;entryX=0.5;entryY=0;entryDx=0;entryDy=0;" edge="1" parent="1">
          <mxGeometry width="50" height="50" relative="1" as="geometry">
            <mxPoint x="388" y="1080" as="sourcePoint" />
            <mxPoint x="388" y="1100" as="targetPoint" />
          </mxGeometry>
        </mxCell>
        <mxCell id="qr8d7CnqY7PZ72oE8k62-64" value="False" style="text;html=1;strokeColor=none;fillColor=none;align=center;verticalAlign=middle;whiteSpace=wrap;rounded=0;" vertex="1" parent="1">
          <mxGeometry x="390" y="990" width="60" height="30" as="geometry" />
        </mxCell>
        <mxCell id="qr8d7CnqY7PZ72oE8k62-65" value="True" style="text;html=1;strokeColor=none;fillColor=none;align=center;verticalAlign=middle;whiteSpace=wrap;rounded=0;" vertex="1" parent="1">
          <mxGeometry x="420" y="930" width="60" height="30" as="geometry" />
        </mxCell>
        <mxCell id="qr8d7CnqY7PZ72oE8k62-66" value="h1=h2=h3=h4 and answer !=ERROR and answer!+NO" style="rhombus;whiteSpace=wrap;html=1;" vertex="1" parent="1">
          <mxGeometry x="350" y="1020" width="80" height="80" as="geometry" />
        </mxCell>
        <mxCell id="qr8d7CnqY7PZ72oE8k62-67" value="" style="endArrow=classic;html=1;rounded=0;exitX=0.5;exitY=1;exitDx=0;exitDy=0;" edge="1" parent="1" source="qr8d7CnqY7PZ72oE8k62-66">
          <mxGeometry width="50" height="50" relative="1" as="geometry">
            <mxPoint x="390" y="1130" as="sourcePoint" />
            <mxPoint x="390" y="1130" as="targetPoint" />
          </mxGeometry>
        </mxCell>
        <mxCell id="qr8d7CnqY7PZ72oE8k62-68" value="answer=YES" style="rounded=0;whiteSpace=wrap;html=1;" vertex="1" parent="1">
          <mxGeometry x="330" y="1130" width="120" height="60" as="geometry" />
        </mxCell>
        <mxCell id="qr8d7CnqY7PZ72oE8k62-69" value="Output answer" style="shape=parallelogram;perimeter=parallelogramPerimeter;whiteSpace=wrap;html=1;fixedSize=1;" vertex="1" parent="1">
          <mxGeometry x="330" y="1210" width="120" height="60" as="geometry" />
        </mxCell>
        <mxCell id="qr8d7CnqY7PZ72oE8k62-70" value="End" style="ellipse;whiteSpace=wrap;html=1;" vertex="1" parent="1">
          <mxGeometry x="330" y="1290" width="120" height="40" as="geometry" />
        </mxCell>
        <mxCell id="qr8d7CnqY7PZ72oE8k62-71" value="" style="endArrow=none;html=1;rounded=0;entryX=0;entryY=0.5;entryDx=0;entryDy=0;" edge="1" parent="1" target="qr8d7CnqY7PZ72oE8k62-66">
          <mxGeometry width="50" height="50" relative="1" as="geometry">
            <mxPoint x="290" y="1060" as="sourcePoint" />
            <mxPoint x="440" y="1080" as="targetPoint" />
          </mxGeometry>
        </mxCell>
        <mxCell id="qr8d7CnqY7PZ72oE8k62-72" value="" style="endArrow=none;html=1;rounded=0;" edge="1" parent="1">
          <mxGeometry width="50" height="50" relative="1" as="geometry">
            <mxPoint x="290" y="1060" as="sourcePoint" />
            <mxPoint x="290" y="1240" as="targetPoint" />
          </mxGeometry>
        </mxCell>
        <mxCell id="qr8d7CnqY7PZ72oE8k62-73" value="" style="endArrow=classic;html=1;rounded=0;exitX=0.5;exitY=1;exitDx=0;exitDy=0;entryX=0.5;entryY=0;entryDx=0;entryDy=0;" edge="1" parent="1" source="qr8d7CnqY7PZ72oE8k62-68" target="qr8d7CnqY7PZ72oE8k62-69">
          <mxGeometry width="50" height="50" relative="1" as="geometry">
            <mxPoint x="390" y="1130" as="sourcePoint" />
            <mxPoint x="440" y="1080" as="targetPoint" />
          </mxGeometry>
        </mxCell>
        <mxCell id="qr8d7CnqY7PZ72oE8k62-74" value="" style="endArrow=classic;html=1;rounded=0;entryX=0;entryY=0.5;entryDx=0;entryDy=0;" edge="1" parent="1" target="qr8d7CnqY7PZ72oE8k62-69">
          <mxGeometry width="50" height="50" relative="1" as="geometry">
            <mxPoint x="290" y="1240" as="sourcePoint" />
            <mxPoint x="440" y="1080" as="targetPoint" />
          </mxGeometry>
        </mxCell>
        <mxCell id="qr8d7CnqY7PZ72oE8k62-75" value="" style="endArrow=classic;html=1;rounded=0;exitX=0.5;exitY=1;exitDx=0;exitDy=0;entryX=0.5;entryY=0;entryDx=0;entryDy=0;" edge="1" parent="1" source="qr8d7CnqY7PZ72oE8k62-69" target="qr8d7CnqY7PZ72oE8k62-70">
          <mxGeometry width="50" height="50" relative="1" as="geometry">
            <mxPoint x="390" y="1130" as="sourcePoint" />
            <mxPoint x="440" y="1080" as="targetPoint" />
          </mxGeometry>
        </mxCell>
        <mxCell id="qr8d7CnqY7PZ72oE8k62-76" value="True" style="text;html=1;strokeColor=none;fillColor=none;align=center;verticalAlign=middle;whiteSpace=wrap;rounded=0;" vertex="1" parent="1">
          <mxGeometry x="390" y="1100" width="60" height="30" as="geometry" />
        </mxCell>
        <mxCell id="qr8d7CnqY7PZ72oE8k62-77" value="False" style="text;html=1;strokeColor=none;fillColor=none;align=center;verticalAlign=middle;whiteSpace=wrap;rounded=0;" vertex="1" parent="1">
          <mxGeometry x="290" y="1030" width="60" height="30" as="geometry" />
        </mxCell>
      </root>
    </mxGraphModel>
  </diagram>
</mxfile>
